<svg width="20" height="20" viewBox="0 0 20 20" fill="none" xmlns="http://www.w3.org/2000/svg">
<g clip-path="url(#clip0_21986_3615)">
<path d="M0.435184 14.8952C0.843517 16.3435 2.09268 16.6085 2.17602 16.6593C4.23185 17.2193 15.7552 17.221 17.8419 16.6593C19.271 16.246 19.5335 14.9785 19.5827 14.8952C20.1269 12.0002 20.1627 8.226 19.5577 4.941L19.5827 5.10433C19.1744 3.656 17.9252 3.391 17.8419 3.34016C15.8135 2.78933 4.26018 2.7685 2.17602 3.34016C0.746851 3.75433 0.484351 5.021 0.435184 5.10433C-0.147316 8.14683 -0.176483 11.6377 0.435184 14.8952ZM8.00685 13.0427V6.96516L13.2285 10.0085L8.00685 13.0427Z" fill="#E53935"/>
</g>
<defs>
<clipPath id="clip0_21986_3615">
<rect width="20" height="20" fill="white"/>
</clipPath>
</defs>
</svg>
