<svg width="21" height="27" viewBox="0 0 21 27" fill="none" xmlns="http://www.w3.org/2000/svg">
<path d="M17.5767 14.3753C17.5893 13.3988 17.8487 12.4414 18.3307 11.5921C18.8127 10.7429 19.5017 10.0293 20.3336 9.51787C19.8052 8.76311 19.108 8.14197 18.2974 7.70379C17.4869 7.26561 16.5854 7.02245 15.6645 6.99364C13.6999 6.78743 11.7954 8.16917 10.7943 8.16917C9.77387 8.16917 8.23256 7.01411 6.5728 7.04826C5.49923 7.08294 4.45295 7.39513 3.5359 7.9544C2.61886 8.51367 1.86232 9.30096 1.34001 10.2395C-0.92249 14.1568 0.765134 19.9139 2.93246 23.0803C4.01682 24.6308 5.28412 26.3628 6.94238 26.3013C8.56508 26.234 9.17113 25.2666 11.1299 25.2666C13.0704 25.2666 13.639 26.3013 15.3309 26.2623C17.0722 26.234 18.1692 24.7049 19.2155 23.1397C19.9947 22.0349 20.5942 20.8139 20.9919 19.5218C19.9803 19.094 19.117 18.3778 18.5097 17.4626C17.9024 16.5474 17.5779 15.4737 17.5767 14.3753Z" fill="#282739"/>
<path d="M14.3811 4.91151C15.3305 3.7718 15.7982 2.30689 15.685 0.827881C14.2345 0.980223 12.8947 1.67345 11.9325 2.76943C11.462 3.30484 11.1017 3.92773 10.8721 4.60249C10.6425 5.27724 10.5482 5.99063 10.5945 6.70187C11.3199 6.70933 12.0377 6.55209 12.6936 6.24197C13.3495 5.93185 13.9265 5.47694 14.3811 4.91151Z" fill="#282739"/>
</svg>
