<svg width="18" height="18" viewBox="0 0 18 18" fill="none" xmlns="http://www.w3.org/2000/svg">
<path d="M9 10.125C9.62132 10.125 10.125 9.62132 10.125 9C10.125 8.37868 9.62132 7.875 9 7.875C8.37868 7.875 7.875 8.37868 7.875 9C7.875 9.62132 8.37868 10.125 9 10.125Z" fill="#5D6C7B"/>
<path d="M16.4026 8.62503C15.9226 7.79253 13.2826 3.61503 8.79755 3.75003C4.65005 3.85503 2.25005 7.50003 1.59755 8.62503C1.53173 8.73904 1.49707 8.86837 1.49707 9.00003C1.49707 9.13168 1.53173 9.26101 1.59755 9.37503C2.07005 10.1925 4.59755 14.25 9.01505 14.25H9.20255C13.3501 14.145 15.7576 10.5 16.4026 9.37503C16.4684 9.26101 16.503 9.13168 16.503 9.00003C16.503 8.86837 16.4684 8.73904 16.4026 8.62503ZM9.00005 11.625C8.48088 11.625 7.97336 11.4711 7.54168 11.1826C7.11 10.8942 6.77355 10.4842 6.57487 10.0046C6.37619 9.52491 6.3242 8.99711 6.42549 8.48791C6.52678 7.97871 6.77678 7.51098 7.1439 7.14387C7.51101 6.77676 7.97874 6.52675 8.48794 6.42546C8.99714 6.32418 9.52494 6.37616 10.0046 6.57484C10.4843 6.77352 10.8942 7.10998 11.1827 7.54165C11.4711 7.97333 11.6251 8.48085 11.6251 9.00003C11.6251 9.69622 11.3485 10.3639 10.8562 10.8562C10.3639 11.3485 9.69625 11.625 9.00005 11.625Z" fill="#5D6C7B"/>
</svg>
