<svg width="20" height="20" viewBox="0 0 20 20" fill="none" xmlns="http://www.w3.org/2000/svg">
<path d="M17.9932 5.51484C17.7325 4.90528 17.3566 4.35291 16.8866 3.88864C16.4163 3.42298 15.8617 3.05293 15.2531 2.79861C14.622 2.53385 13.9452 2.39833 13.2618 2.39992C12.3031 2.39992 11.3677 2.66506 10.5548 3.16588C10.3603 3.28569 10.1756 3.41727 10.0006 3.56065C9.82555 3.41727 9.64081 3.28569 9.44634 3.16588C8.63347 2.66506 7.69809 2.39992 6.73936 2.39992C6.04901 2.39992 5.38004 2.53347 4.74803 2.79861C4.1374 3.05393 3.58706 3.4212 3.1145 3.88864C2.64389 4.35239 2.26795 4.90489 2.00799 5.51484C1.73768 6.14922 1.59961 6.82287 1.59961 7.51617C1.59961 8.17019 1.73185 8.8517 1.99438 9.54499C2.21412 10.1244 2.52916 10.7254 2.93171 11.3322C3.56956 12.2926 4.4466 13.2943 5.53562 14.3097C7.34027 15.9929 9.12742 17.1555 9.20326 17.2027L9.66414 17.5012C9.86833 17.6328 10.1309 17.6328 10.3351 17.5012L10.7959 17.2027C10.8718 17.1536 12.657 15.9929 14.4636 14.3097C15.5526 13.2943 16.4296 12.2926 17.0675 11.3322C17.47 10.7254 17.787 10.1244 18.0048 9.54499C18.2674 8.8517 18.3996 8.17019 18.3996 7.51617C18.4015 6.82287 18.2635 6.14922 17.9932 5.51484ZM10.0006 15.9477C10.0006 15.9477 3.07756 11.4678 3.07756 7.51617C3.07756 5.51484 4.71691 3.89257 6.73936 3.89257C8.16092 3.89257 9.39384 4.69388 10.0006 5.86443C10.6073 4.69388 11.8402 3.89257 13.2618 3.89257C15.2842 3.89257 16.9236 5.51484 16.9236 7.51617C16.9236 11.4678 10.0006 15.9477 10.0006 15.9477Z" fill="#282739"/>
</svg>
