<svg width="17" height="17" viewBox="0 0 17 17" fill="none" xmlns="http://www.w3.org/2000/svg">
<path d="M0.83828 2.7209L3.02236 0.538867C3.17643 0.384123 3.35955 0.261343 3.56121 0.177582C3.76287 0.0938209 3.9791 0.0507289 4.19746 0.0507813C4.64248 0.0507813 5.06084 0.225098 5.37461 0.538867L7.7248 2.88906C7.87955 3.04313 8.00233 3.22625 8.08609 3.42791C8.16985 3.62957 8.21294 3.8458 8.21289 4.06416C8.21289 4.50918 8.03857 4.92754 7.7248 5.24131L6.00625 6.95986C6.40852 7.84654 6.96781 8.65317 7.65713 9.34082C8.34471 10.0318 9.15127 10.5931 10.0381 10.9979L11.7566 9.2793C11.9107 9.12455 12.0938 9.00177 12.2955 8.91801C12.4972 8.83425 12.7134 8.79116 12.9317 8.79121C13.3768 8.79121 13.7951 8.96553 14.1089 9.2793L16.4611 11.6274C16.6161 11.7818 16.739 11.9653 16.8227 12.1673C16.9065 12.3693 16.9495 12.5859 16.9492 12.8046C16.9492 13.2496 16.7749 13.668 16.4611 13.9817L14.2812 16.1617C13.7808 16.6642 13.0896 16.9492 12.3801 16.9492C12.2304 16.9492 12.0868 16.9369 11.9453 16.9123C9.18086 16.457 6.43896 14.9866 4.22617 12.7759C2.01543 10.5672 0.54707 7.82734 0.0856438 5.05469C-0.0538101 4.20772 0.227148 3.33613 0.83828 2.7209Z" fill="#6F73EE"/>
</svg>
