<svg width="19" height="19" viewBox="0 0 19 19" fill="none" xmlns="http://www.w3.org/2000/svg">
<path d="M18.2275 7.99667L10.962 0.731183C10.5715 0.340536 10.0521 0.125488 9.49985 0.125488C8.94757 0.125488 8.42818 0.340536 8.03767 0.731183L0.772198 7.99667C0.381694 8.38717 0.166504 8.90642 0.166504 9.45885C0.166504 10.0113 0.381694 10.5305 0.772198 10.921L8.03767 18.1865C8.42818 18.5772 8.94757 18.7922 9.49985 18.7922C10.0521 18.7922 10.5715 18.5772 10.962 18.1865L18.2274 10.921C18.618 10.5305 18.8332 10.0113 18.8332 9.45885C18.8332 8.90642 18.618 8.38717 18.2275 7.99667ZM10.061 13.2114C10.0591 13.2289 10.0566 13.2467 10.0529 13.2642C10.0493 13.2817 10.0449 13.2992 10.0398 13.3165C10.0346 13.3333 10.0285 13.3504 10.0215 13.3667C10.015 13.3831 10.007 13.3996 9.99888 13.4153C9.99062 13.431 9.98108 13.4464 9.97125 13.4613C9.96128 13.4763 9.95074 13.4905 9.93949 13.5043C9.9281 13.5181 9.91571 13.5317 9.90332 13.5445C9.89064 13.5569 9.87711 13.5693 9.86316 13.5805C9.84934 13.5919 9.8351 13.6024 9.82015 13.6123C9.80519 13.6221 9.78981 13.6316 9.77415 13.64C9.75848 13.648 9.7421 13.6557 9.72558 13.6627C9.7092 13.6695 9.69211 13.6758 9.67531 13.6809C9.65808 13.686 9.6407 13.6903 9.62319 13.694C9.60567 13.6973 9.58772 13.7003 9.57021 13.702C9.55241 13.7038 9.53418 13.7046 9.51623 13.7046C9.49843 13.7046 9.48049 13.7038 9.46254 13.702C9.44474 13.7003 9.42694 13.6973 9.40928 13.694C9.3919 13.6903 9.37439 13.686 9.35758 13.6809C9.34035 13.6758 9.32326 13.6695 9.30688 13.6627C9.29036 13.6557 9.27427 13.648 9.25874 13.64C9.24294 13.6316 9.22727 13.6221 9.21232 13.6123C9.19779 13.6024 9.18312 13.5919 9.16931 13.5805C9.15535 13.5693 9.14196 13.5569 9.12943 13.5445C9.11676 13.5317 9.10465 13.5181 9.09297 13.5043C9.08201 13.4905 9.07118 13.4763 9.06121 13.4613C9.05139 13.4464 9.04227 13.431 9.03387 13.4153C9.02561 13.3996 9.01792 13.3831 9.01094 13.3667C9.00439 13.3504 8.99812 13.3333 8.993 13.3165C8.98759 13.2992 8.98317 13.2817 8.97989 13.2642C8.97633 13.2467 8.97377 13.2289 8.97192 13.2114C8.97007 13.1934 8.96907 13.1752 8.96907 13.1574C8.96907 13.1394 8.97007 13.1216 8.97192 13.1037C8.97377 13.0859 8.97633 13.068 8.97989 13.0504C8.98317 13.0329 8.98759 13.0154 8.993 12.9987C8.99812 12.9815 9.00439 12.9647 9.01094 12.9479C9.01792 12.9315 9.02547 12.9154 9.03387 12.8998C9.04227 12.8841 9.05139 12.8684 9.06121 12.8539C9.07118 12.839 9.08201 12.8243 9.09297 12.8105C9.10465 12.7965 9.11676 12.7831 9.12943 12.7703C9.14196 12.7579 9.15535 12.7458 9.16931 12.7341C9.18312 12.7232 9.19765 12.7123 9.21232 12.7024C9.22727 12.6925 9.24294 12.6834 9.25874 12.675C9.27441 12.6666 9.29036 12.6591 9.30688 12.6521C9.32326 12.6451 9.34035 12.6393 9.35758 12.6342C9.37439 12.6287 9.39176 12.6243 9.40928 12.6211C9.4268 12.6175 9.44474 12.6145 9.46254 12.6131C9.498 12.6094 9.53446 12.6094 9.57021 12.6131C9.58772 12.6145 9.60567 12.6175 9.62319 12.6211C9.64056 12.6243 9.65808 12.6287 9.67531 12.6342C9.69211 12.6393 9.7092 12.6451 9.72558 12.6521C9.7421 12.6591 9.75848 12.6666 9.77415 12.675C9.78981 12.6834 9.80519 12.6925 9.82015 12.7024C9.8351 12.7123 9.84934 12.7232 9.86316 12.7341C9.87711 12.7458 9.89064 12.7579 9.90332 12.7703C9.91571 12.7831 9.92824 12.7965 9.93949 12.8105C9.95074 12.8243 9.96128 12.839 9.97125 12.8539C9.98108 12.8684 9.99048 12.8841 9.99888 12.8998C10.007 12.9154 10.015 12.9315 10.0215 12.9479C10.0285 12.9647 10.0346 12.9815 10.0398 12.9987C10.0449 13.0154 10.0493 13.0329 10.0529 13.0504C10.0566 13.068 10.0591 13.0859 10.061 13.1037C10.0628 13.1216 10.0635 13.1394 10.0635 13.1574C10.0635 13.1752 10.0628 13.1934 10.061 13.2114ZM10.0635 11.4427C10.0635 11.7449 9.81858 11.99 9.51637 11.99C9.21417 11.99 8.96907 11.7449 8.96907 11.4427V5.7663C8.96907 5.46409 9.21417 5.21899 9.51637 5.21899C9.81858 5.21899 10.0635 5.46409 10.0635 5.7663V11.4427Z" fill="#6F73EE"/>
</svg>
