<svg width="17" height="19" viewBox="0 0 17 19" fill="none" xmlns="http://www.w3.org/2000/svg">
<path d="M8.5 5.70605C7.88682 5.70605 7.31055 5.94394 6.87578 6.37871C6.66214 6.59174 6.49272 6.84491 6.37728 7.12366C6.26184 7.40241 6.20266 7.70123 6.20312 8.00293C6.20312 8.61611 6.44307 9.19238 6.87578 9.62715C7.08881 9.84079 7.34198 10.0102 7.62073 10.1256C7.89948 10.2411 8.1983 10.3003 8.5 10.2998C9.11318 10.2998 9.68945 10.0599 10.1242 9.62715C10.559 9.19238 10.7969 8.61611 10.7969 8.00293C10.7969 7.38975 10.559 6.81348 10.1242 6.37871C9.68945 5.94394 9.11318 5.70605 8.5 5.70605ZM15.526 4.92881C15.1399 4.03852 14.5832 3.23244 13.8874 2.55605C13.1893 1.87355 12.3663 1.33186 11.4634 0.960547C10.5241 0.570898 9.52744 0.374023 8.5 0.374023C7.47256 0.374023 6.47588 0.570898 5.53662 0.958496C4.62812 1.33379 3.81396 1.87109 3.1126 2.554C2.41722 3.23077 1.86063 4.03676 1.47402 4.92676C1.07412 5.84961 0.871094 6.82988 0.871094 7.83887C0.871094 9.28672 1.21768 10.7284 1.89854 12.1188C2.44609 13.2365 3.21104 14.3255 4.1749 15.3611C5.82168 17.1289 7.54844 18.2097 8.03857 18.4988C8.1777 18.581 8.33637 18.6242 8.49795 18.6239C8.65791 18.6239 8.81582 18.5829 8.95732 18.4988C9.44746 18.2097 11.1742 17.1289 12.821 15.3611C13.7849 14.3275 14.5498 13.2365 15.0974 12.1188C15.7823 10.7305 16.1289 9.29082 16.1289 7.84092C16.1289 6.83193 15.9259 5.85166 15.526 4.92881ZM8.5 11.6123C6.50664 11.6123 4.89062 9.99629 4.89062 8.00293C4.89062 6.00957 6.50664 4.39355 8.5 4.39355C10.4934 4.39355 12.1094 6.00957 12.1094 8.00293C12.1094 9.99629 10.4934 11.6123 8.5 11.6123Z" fill="#6F73EE"/>
</svg>
